<svg xmlns="http://www.w3.org/2000/svg" viewBox="0 0 1024 1024">
  <defs>
    <linearGradient id="bg" x1="160" y1="112" x2="864" y2="912" gradientUnits="userSpaceOnUse">
      <stop offset="0" stop-color="#2f2f31"/>
      <stop offset="1" stop-color="#111113"/>
    </linearGradient>
    <linearGradient id="shine" x1="638" y1="254" x2="786" y2="402" gradientUnits="userSpaceOnUse">
      <stop offset="0" stop-color="#7dd3fc"/>
      <stop offset="1" stop-color="#34c759"/>
    </linearGradient>
    <filter id="soft-shadow" x="-20%" y="-20%" width="140%" height="150%">
      <feDropShadow dx="0" dy="18" stdDeviation="22" flood-color="#000000" flood-opacity="0.28"/>
    </filter>
  </defs>

  <rect x="88" y="88" width="848" height="848" rx="192" fill="url(#bg)"/>
  <path d="M218 768c72 80 176 128 294 128s222-48 294-128" fill="none" stroke="#ffffff" stroke-opacity="0.06" stroke-width="34" stroke-linecap="round"/>

  <g filter="url(#soft-shadow)">
    <rect x="384" y="196" width="256" height="410" rx="128" fill="#f7f7f8"/>
    <rect x="432" y="244" width="160" height="314" rx="80" fill="#1a1a1c"/>
    <path d="M300 462c0 132 78 226 212 226s212-94 212-226" fill="none" stroke="#f7f7f8" stroke-width="62" stroke-linecap="round"/>
    <path d="M512 688v126" fill="none" stroke="#f7f7f8" stroke-width="62" stroke-linecap="round"/>
    <path d="M396 814h232" fill="none" stroke="#f7f7f8" stroke-width="62" stroke-linecap="round"/>
  </g>

  <path d="M728 178l32 88 88 32-88 32-32 88-32-88-88-32 88-32 32-88z" fill="url(#shine)"/>
  <circle cx="788" cy="206" r="18" fill="#f7f7f8" opacity="0.9"/>
</svg>
