<svg xmlns="http://www.w3.org/2000/svg" viewBox="0 0 1024 1024">
  <defs>
    <linearGradient id="bg" x1="120" y1="112" x2="904" y2="912" gradientUnits="userSpaceOnUse">
      <stop offset="0" stop-color="#f7ffe8"/>
      <stop offset="1" stop-color="#d9f7b7"/>
    </linearGradient>
    <linearGradient id="frog" x1="340" y1="188" x2="714" y2="768" gradientUnits="userSpaceOnUse">
      <stop offset="0" stop-color="#56d364"/>
      <stop offset="1" stop-color="#2ea043"/>
    </linearGradient>
    <filter id="shadow" x="-20%" y="-20%" width="140%" height="150%">
      <feDropShadow dx="0" dy="24" stdDeviation="30" flood-color="#14321b" flood-opacity="0.22"/>
    </filter>
  </defs>

  <rect x="88" y="88" width="848" height="848" rx="192" fill="url(#bg)"/>
  <path d="M220 788c72 76 172 120 292 120s220-44 292-120" fill="none" stroke="#ffffff" stroke-opacity="0.45" stroke-width="34" stroke-linecap="round"/>

  <g filter="url(#shadow)">
    <circle cx="372" cy="316" r="104" fill="url(#frog)"/>
    <circle cx="652" cy="316" r="104" fill="url(#frog)"/>
    <rect x="264" y="282" width="496" height="428" rx="232" fill="url(#frog)"/>
    <ellipse cx="512" cy="586" rx="216" ry="148" fill="#8ae06e" opacity="0.35"/>

    <circle cx="392" cy="332" r="42" fill="#18351f"/>
    <circle cx="632" cy="332" r="42" fill="#18351f"/>
    <circle cx="378" cy="318" r="14" fill="#ffffff" opacity="0.92"/>
    <circle cx="618" cy="318" r="14" fill="#ffffff" opacity="0.92"/>

    <path d="M394 540c42 44 194 44 236 0" fill="none" stroke="#18351f" stroke-width="34" stroke-linecap="round"/>
    <path d="M336 704c26-52 62-78 108-78" fill="none" stroke="#1d7c35" stroke-width="28" stroke-linecap="round" opacity="0.55"/>
    <path d="M688 704c-26-52-62-78-108-78" fill="none" stroke="#1d7c35" stroke-width="28" stroke-linecap="round" opacity="0.55"/>
  </g>
</svg>
